Coordinates
version=1
nRows=19
nColumns=36
inDegrees=yes

Units are S.I. units (second, meters, Newtons, ...)
If the header above contains a line with 'inDegrees', this indicates whether rotational values are in degrees (yes) or radians (no).

endheader
time	pelvis_tilt	pelvis_list	pelvis_rotation	pelvis_tx	pelvis_ty	pelvis_tz	hip_flexion_r	hip_adduction_r	hip_rotation_r	knee_angle_r	knee_angle_r_beta	ankle_angle_r	subtalar_angle_r	mtp_angle_r	hip_flexion_l	hip_adduction_l	hip_rotation_l	knee_angle_l	knee_angle_l_beta	ankle_angle_l	subtalar_angle_l	mtp_angle_l	lumbar_extension	lumbar_bending	lumbar_rotation	arm_flex_r	arm_add_r	arm_rot_r	elbow_flex_r	pro_sup_r	arm_flex_l	arm_add_l	arm_rot_l	elbow_flex_l	pro_sup_l
      0.00000000	      4.51219727	     -1.02159906	      0.04895511	     -0.88091894	      1.25010196	     -0.06936302	     -9.17492965	      1.57070632	      1.73350150	      8.04571691	      0.14042425	      9.49175748	    -13.62322579	     -5.24690322	     -9.71301853	     -2.88883291	      3.81221737	      5.15081889	      0.08989875	     14.68915954	     -3.30884482	     -5.24690322	    -12.17293202	      4.06294972	      0.30801250	      7.04680876	     -8.84026442	     29.88448702	     25.12239866	     70.02934007	      5.62437376	     -4.54805076	     23.64834820	     22.39451080	     64.83107913
      0.00416670	      4.07522221	     -0.73072118	     -0.69554079	     -0.88135054	      1.24857748	     -0.06873576	     -8.04805284	      1.09939812	      1.93989943	      9.17939379	      0.16021065	     13.31013898	    -10.94085139	     -6.54145412	     -8.77389617	     -1.83500390	      5.76611540	      5.85526331	      0.10219362	     13.49653828	     -4.88063675	     -6.54145412	    -11.58842779	      4.23823956	      0.43266994	      7.02746777	     -8.73920403	     26.64737274	     25.71881361	     74.30803710	      5.08712601	     -4.13357268	     20.32992687	     23.21568717	     68.52800187
      0.00833330	      3.76655803	     -0.27412491	     -1.32981126	     -0.88172091	      1.24741724	     -0.06753159	     -7.38008731	      0.40584586	      1.85639481	      9.52942937	      0.16631992	     14.43044302	    -10.18167514	     -6.65285512	     -8.56372314	     -1.25970457	      5.68983377	      5.93807351	      0.10363893	     13.36648547	     -5.18456258	     -6.65285512	    -11.45491663	      3.58997811	      0.84268809	      7.32169703	     -8.29781031	     25.91700990	     25.69363901	     73.74845428	      5.50122398	     -4.25360101	     20.05897870	     23.46805521	     68.29869837
      0.01250000	      4.93710930	     -0.20830130	     -1.93300626	     -0.88338640	      1.25249183	     -0.06688544	     -8.46548922	      0.02117863	      1.41549035	      9.31374927	      0.16255559	     14.86159807	     -8.99126117	     -6.98347829	    -10.43558185	     -1.03784016	      6.31027157	      4.81703683	      0.08407315	     12.55686825	     -6.29271614	     -6.98347829	    -13.33026466	      3.29377319	      1.65828442	      7.37476137	     -7.78499458	     22.38479620	     26.11776277	     77.23276906	      6.27731460	     -4.24785291	     19.43740393	     23.57288995	     72.43119431
      0.01666670	      5.68921190	     -0.28370715	     -2.37713456	     -0.88401369	      1.25289806	     -0.06637909	     -9.35532924	     -0.08109467	      1.38277682	      9.17357595	      0.16010910	     14.77601391	     -8.29477742	     -7.12157246	    -11.58279625	     -1.01948361	      6.55094821	      4.13940858	      0.07224631	     12.08823892	     -6.91210146	     -7.12157246	    -14.54548961	      3.25312751	      2.00076725	      7.77477863	     -7.79410817	     23.27208306	     26.40617228	     75.61476018	      6.70921964	     -4.31957501	     19.91048505	     23.85665248	     71.54004955
      0.02083330	      6.26729601	     -0.31137712	     -2.85831449	     -0.88503302	      1.25393963	     -0.06565253	     -9.80652224	     -0.22503270	      1.13144912	      9.25012578	      0.16144515	     14.79677018	     -8.12056424	     -7.20861197	    -12.41781803	     -0.89293905	      6.69051114	      3.81516089	      0.06658712	     11.69847129	     -7.43853727	     -7.20861197	    -15.50977150	      3.17121869	      2.41863272	      8.08567660	     -7.91048253	     24.15754471	     26.29758390	     74.39304486	      7.23994191	     -4.28064212	     20.40572489	     23.55276605	     71.10831626
      0.02500000	      6.77223553	     -0.40514702	     -3.08996315	     -0.87930134	      1.25392013	     -0.06148174	    -10.75515019	     -0.15617371	      1.18545436	      8.78510515	      0.15332901	     14.59582584	     -7.86455174	     -7.21801148	    -13.29420654	     -1.01291186	      6.79523128	      3.49312976	      0.06096662	     11.47364166	     -7.83023934	     -7.21801148	    -15.80991382	      3.17872176	      2.84413074	      7.80565893	     -8.06378376	     25.20339042	     26.22640792	     74.93743248	      7.23950907	     -4.23595131	     21.01506707	     23.46607029	     71.96877478
      0.02916670	      7.01117776	     -0.31022974	     -3.16080078	     -0.87962865	      1.25105409	     -0.06095394	    -11.19507647	     -0.22427799	      1.08834677	      8.64509934	      0.15088545	     14.63862658	     -7.86218878	     -7.27423707	    -13.71655508	     -0.95097847	      7.17889434	      3.47909570	      0.06072167	     11.23293514	     -8.38640991	     -7.27423707	    -15.78970186	      2.95171687	      2.96180262	      7.82359323	     -8.29174143	     27.70296180	     26.12031115	     74.86757702	      7.31547073	     -4.58815201	     22.69090965	     23.41407739	     73.44038790
      0.03333330	      7.29292163	     -0.29485801	     -3.08581878	     -0.87948912	      1.25150690	     -0.06114877	    -11.79755554	     -0.19581709	      1.09598032	      8.30651256	      0.14497599	     14.67803782	     -8.05226031	     -7.46339691	    -14.14463972	     -1.01244699	      7.40735993	      3.38581048	      0.05909354	     11.06421481	     -8.67662521	     -7.46339691	    -15.86913123	      2.86676483	      3.02724509	      7.58159910	     -8.32059202	     27.86869843	     26.16958331	     76.81218882	      7.11779753	     -4.49899993	     21.08073720	     23.34715835	     79.95309258
      0.03750000	      7.24178689	     -0.25782440	     -3.09161022	     -0.88008114	      1.25553241	     -0.06139688	    -11.80684863	     -0.18926029	      1.09594258	      8.30684454	      0.14498179	     14.67928791	     -8.05358348	     -7.46339969	    -14.15764480	     -1.02840903	      7.40905259	      3.39316921	      0.05922197	     11.05581453	     -8.67561399	     -7.46339969	    -15.86687446	      2.86156184	      3.02681360	      7.57456636	     -8.32063322	     27.87085299	     26.16847660	     76.81250674	      7.11497405	     -4.50329459	     21.08137131	     23.34556602	     79.95337249
      0.04166670	      7.53151194	     -0.15059337	     -2.94103018	     -0.87992775	      1.25216966	     -0.06149309	    -12.50185943	     -0.17439310	      1.31824773	      7.65383019	      0.13358454	     14.70268757	     -8.19705219	     -7.46569924	    -14.45549898	     -0.96341290	      7.85582841	      3.43347463	      0.05992544	     10.49635139	     -9.28994481	     -7.46569924	    -15.90188937	      2.61138745	      2.94400553	      7.49698726	     -8.57891777	     29.83292198	     26.17067092	     76.48180789	      7.24484162	     -4.88265196	     22.88776434	     22.99216533	     79.93153287
      0.04583330	      7.62574416	     -0.05761514	     -2.85049735	     -0.87971776	      1.25250487	     -0.06126297	    -12.82912928	     -0.22793527	      1.21585414	      7.34701289	      0.12822957	     14.72273753	     -8.03614548	     -7.49325393	    -14.56596520	     -0.91600739	      8.05872486	      3.35990340	      0.05864138	     10.19824710	     -9.47988036	     -7.49325393	    -15.87367715	      2.47001284	      2.89010786	      7.45938527	     -8.62785667	     30.51927373	     26.14754958	     76.77383565	      7.33324858	     -5.09522934	     23.76160350	     22.82459416	     81.06669121
      0.05000000	      7.05484961	     -0.01868243	     -2.93072107	     -0.87934410	      1.25175910	     -0.06152869	    -12.15271585	     -0.23951500	      1.25467614	      7.53973322	      0.13159317	     15.01654672	     -7.98441893	     -7.49364016	    -14.00858415	     -0.88730126	      7.93283384	      3.29800835	      0.05756110	     10.47691100	     -9.09951209	     -7.49364016	    -15.02261460	      2.46504741	      2.91093389	      7.01766808	     -8.79135920	     30.40347103	     26.74253886	     76.02948729	      6.77182855	     -5.24513860	     23.61682026	     23.35153349	     80.20523587
      0.05416670	      7.52973929	      0.02366014	     -2.72931861	     -0.88002651	      1.25260574	     -0.06158342	    -12.86826964	     -0.23677938	      1.23875970	      7.04681506	      0.12299012	     14.66841751	     -8.32669573	     -7.49414118	    -14.47521688	     -0.85044628	      8.50012029	      3.31606543	      0.05787626	      9.92305329	    -10.15408445	     -7.49414118	    -15.73921224	      2.41987019	      2.86886493	      7.55804839	     -8.88767083	     31.68741701	     26.17523887	     76.42842467	      7.30426408	     -5.28038038	     24.94762452	     22.67318628	     80.74275286
      0.05833330	      7.47027474	      0.08276194	     -2.60027749	     -0.87951134	      1.25612236	     -0.06187972	    -12.92687502	     -0.29834285	      1.03976605	      6.76120797	      0.11800534	     14.60625087	     -8.29846049	     -7.49608937	    -14.40173837	     -0.83198160	      8.57052441	      3.28054634	      0.05725633	      9.72023900	    -10.18227216	     -7.49608937	    -15.70659873	      2.41618044	      2.78126415	      7.66509273	     -8.99430977	     32.45105700	     25.99645069	     75.76383880	      7.45358919	     -5.40353317	     26.08570483	     22.42843957	     79.97414298
      0.06250000	      7.52513985	      0.09091785	     -2.57481100	     -0.88010874	      1.25291609	     -0.06148657	    -12.96596452	     -0.26489714	      1.25556604	      6.59268226	      0.11506401	     14.52620776	     -8.45448274	     -7.49637442	    -14.46859142	     -0.83024980	      8.60426391	      3.29693226	      0.05754232	      9.54640896	    -10.53850705	     -7.49637442	    -15.81153681	      2.37075848	      2.81265025	      7.72146210	     -9.05771475	     32.78570630	     26.03223849	     75.55442807	      7.50874402	     -5.51949812	     26.50483665	     22.45975628	     79.80830543
      0.06666670	      7.55199400	      0.12060412	     -2.43401743	     -0.87977616	      1.25635118	     -0.06178393	    -13.07067994	     -0.21483089	      1.13951930	      6.25266751	      0.10912964	     14.34384339	     -8.48580663	     -7.49714588	    -14.49993419	     -0.85324429	      8.69650661	      3.25809725	      0.05686452	      9.35386659	    -10.46223301	     -7.49714588	    -15.87279372	      2.33755140	      2.74507244	      7.67570989	     -9.03289997	     32.51995822	     26.02593537	     73.46092756	      7.50027982	     -5.47873986	     26.30257215	     22.47129141	     77.35488148
      0.07083330	      7.62202425	      0.08967778	     -2.31779410	     -0.88004660	      1.25649367	     -0.06173673	    -13.19150552	     -0.11160344	      0.98057299	      5.99230956	      0.10458553	     14.23126849	     -8.34025483	     -7.49867752	    -14.55582742	     -0.91782722	      8.83011378	      3.25164222	      0.05675186	      9.22215542	    -10.49639046	     -7.49867752	    -15.97493966	      2.39574981	      2.61687326	      7.72271439	     -9.11499427	     32.38075447	     25.96520019	     77.40650548	      7.61697406	     -5.64597574	     26.52074327	     22.35959167	     82.19227632
      0.07500000	      7.57752117	      0.06403594	     -2.26559298	     -0.88577001	      1.25627780	     -0.06600703	    -12.99128359	     -0.12811672	      0.93098467	      5.97786115	      0.10433336	     14.20291740	     -8.34533137	     -7.49868730	    -14.36421270	     -0.90245672	      8.85271771	      3.23716217	      0.05649914	      9.15431759	    -10.52068697	     -7.49868730	    -16.16905988	      2.56275326	      2.60795056	      7.97686032	     -9.29632632	     32.38641374	     25.98341118	     77.41740404	      7.74571263	     -5.52537174	     26.58727813	     22.40639573	     82.21764219
